<?xml version="1.0" encoding="utf-8"?>
<!-- Generator: Adobe Illustrator 16.0.0, SVG Export Plug-In . SVG Version: 6.00 Build 0)  -->
<!DOCTYPE svg PUBLIC "-//W3C//DTD SVG 1.1//EN" "http://www.w3.org/Graphics/SVG/1.1/DTD/svg11.dtd">
<svg version="1.1" id="Layer_1" xmlns="http://www.w3.org/2000/svg" xmlns:xlink="http://www.w3.org/1999/xlink" x="0px" y="0px"
	 width="570px" height="570px" viewBox="0 0 570 570" enable-background="new 0 0 570 570" xml:space="preserve">
<polygon fill="#EE6F00" points="416.2,514.76 151.623,513.504 20.422,283.743 153.801,55.24 418.376,56.498 549.578,286.258 "/>
<polygon fill="#FFFFFF" points="410.226,504.297 157.696,503.098 32.47,283.801 159.775,65.703 412.303,66.902 537.53,286.199 "/>
<polygon fill="#EE6F00" points="393.624,475.224 174.574,474.184 65.949,283.959 176.376,94.776 395.426,95.817 504.051,286.041 "/>
<polygon opacity="0.4" points="454.526,370.886 430,413.5 430,413.5 393.624,475.224 268.659,474.63 268.659,474.63 
	187.348,393.319 232.708,347.959 243.381,343.58 233.129,335.571 272.209,308.458 251.983,292.01 301.875,285 283.229,277.762 
	293.375,270 319.333,266.773 332.154,248.513 428.57,344.93 438.57,354.93 "/>
<g>
	<path fill-rule="evenodd" clip-rule="evenodd" fill="#FFFFFF" d="M187.202,393.364c0.418-0.906,0.68-1.557,1.009-2.169
		c8.82-16.429,17.665-32.845,26.444-49.296c0.787-1.477,1.624-2.111,3.36-1.861c11.137,1.601,22.289,3.102,33.433,4.666
		c10.506,1.475,20.977,3.312,31.526,4.333c4.542,0.44,9.263-0.634,13.87-1.263c13.38-1.829,26.743-3.775,40.111-5.686
		c4.377-0.624,8.768-1.171,13.118-1.944c2.985-0.531,4.691,0.55,6.063,3.213c4.157,8.074,8.518,16.042,12.822,24.039
		c3.847,7.147,7.73,14.275,11.585,21.42c0.721,1.339,1.375,2.713,2.254,4.458c-2.166,0.306-4.092,0.574-6.017,0.849
		c-14.322,2.048-28.643,4.111-42.968,6.141c-15.201,2.153-30.369,4.648-45.632,6.224c-6.039,0.622-12.335-0.545-18.443-1.4
		c-26.109-3.652-52.193-7.494-78.287-11.259C190.121,393.636,188.778,393.534,187.202,393.364z"/>
	<path fill-rule="evenodd" clip-rule="evenodd" fill="#FFFFFF" d="M233.129,295.405c5.275,0.679,10.218,1.237,15.135,1.962
		c11.059,1.628,22.072,3.608,33.17,4.88c4.3,0.491,8.806-0.325,13.166-0.93c12.264-1.703,24.497-3.626,36.751-5.409
		c1.717-0.25,3.474-0.212,5.301-0.312c0,13.461,0,26.623,0,40.056c-6.386,0.999-12.629,2.053-18.896,2.938
		c-10.112,1.432-20.214,3.012-30.371,3.992c-4.07,0.392-8.296-0.485-12.416-1.046c-13.545-1.844-27.076-3.806-40.611-5.725
		c-0.383-0.056-0.762-0.148-1.228-0.241C233.129,322.316,233.129,309.15,233.129,295.405z"/>
	<g>
		<path fill="#FFFFFF" d="M279.464,169.357c-1.722-4.907-5.936-6.807-11.062-5.727c-7.483,1.576-13.384,5.894-18.506,11.214
			c-15.427,16.021-25.481,35.015-30.271,56.709c-1.443,6.538-1.927,13.249,0.267,19.805c1.813,5.42,5.812,7.756,11.428,6.79
			c6.384-1.099,11.351-4.797,15.961-8.995c12.634-11.503,21.179-25.775,27.61-41.414c3.595-8.742,6.314-17.72,6.955-27.401
			C281.084,176.666,280.693,172.865,279.464,169.357z M269.976,211.163c-4.013,9.757-9.343,18.66-17.223,25.834
			c-2.876,2.62-5.975,4.927-9.958,5.612c-3.503,0.604-5.998-0.855-7.129-4.234c-1.369-4.091-1.067-8.276-0.167-12.356
			c2.988-13.532,9.26-25.382,18.882-35.375c3.196-3.318,6.877-6.013,11.545-6.996c3.197-0.673,5.826,0.512,6.9,3.573
			c0.768,2.188,1.011,4.56,1.488,6.849C273.915,200.109,272.219,205.71,269.976,211.163z"/>
	</g>
	<path fill-rule="evenodd" clip-rule="evenodd" fill="#FFFFFF" d="M284.188,200.42c0.725,0.766,1.302,1.227,1.692,1.812
		c10.498,15.722,24.161,28.341,38.94,39.887c2.783,2.174,5.576,4.42,7.958,7.007c8.14,8.854,10.562,19.242,7.606,30.876
		c-0.667,2.625-1.515,5.204-2.305,7.891c-4.858-0.657-9.465-1.281-14.442-1.954c0.735-1.334,1.287-2.534,2.015-3.618
		c2.528-3.771,2.729-7.963,2.429-12.29c-0.128-1.836-1.369-1.495-2.429-1.355c-6.137,0.811-12.271,1.642-18.396,2.528
		c-4.771,0.692-9.526,1.494-14.296,2.211c-1.544,0.232-2.662,0.663-3.594,2.241c-1.947,3.305-6.263,3.316-8.489,0.203
		c-1.822-2.545-2.416-5.41-1.578-8.475c1.185-4.332,5.881-5.635,9.342-2.795c0.93,0.763,2.497,1.275,3.674,1.128
		c8.607-1.086,17.192-2.354,25.779-3.6c1.799-0.262,3.578-0.668,5.639-1.061c-1.518-2.829-3.731-4.519-6.268-5.394
		c-5.751-1.987-11.52-4.302-17.475-5.233c-11.578-1.813-23.288-2.776-34.944-4.064c-1.668-0.184-3.35-0.221-5.666-0.364
		C270.525,232.161,279.154,217.471,284.188,200.42z"/>
	<path fill-rule="evenodd" clip-rule="evenodd" fill="#FFFFFF" d="M285.07,296.156c-9.765-0.972-19.368-1.75-28.917-2.954
		c-4.954-0.624-4.911-0.964-4.833-5.888c0.07-4.538,0.026-4.906,4.634-5.464c8.439-1.023,16.925-1.91,25.415-2.221
		c10.763-0.394,21.545-0.065,32.173,2.064c4.987,0.999,4.979,1.039,4.904,6.146c-0.064,4.389-0.02,4.74-4.48,5.304
		C304.34,294.362,294.662,295.182,285.07,296.156z"/>
</g>
</svg>
