<?xml version="1.0" encoding="utf-8"?>
<!-- Generator: Adobe Illustrator 16.0.0, SVG Export Plug-In . SVG Version: 6.00 Build 0)  -->
<!DOCTYPE svg PUBLIC "-//W3C//DTD SVG 1.1//EN" "http://www.w3.org/Graphics/SVG/1.1/DTD/svg11.dtd">
<svg version="1.1" id="Layer_1" xmlns="http://www.w3.org/2000/svg" xmlns:xlink="http://www.w3.org/1999/xlink" x="0px" y="0px"
	 width="570px" height="570px" viewBox="0 0 570 570" enable-background="new 0 0 570 570" xml:space="preserve">
<g>
	<polygon fill="#0879FF" points="416.2,514.76 151.623,513.504 20.422,283.743 153.801,55.24 418.376,56.498 549.578,286.258 	"/>
	<polygon fill="#FFFFFF" points="410.226,504.297 157.696,503.098 32.47,283.801 159.775,65.703 412.303,66.902 537.53,286.199 	"/>
	<polygon fill="#0879FF" points="393.624,475.224 174.574,474.184 65.949,283.959 176.376,94.776 395.426,95.817 504.051,286.041 	
		"/>
	<polygon opacity="0.4" points="490.779,308.778 458.5,364 424,424.5 393.624,475.224 283.557,475.224 256.668,448.335 
		237.172,428.838 284.999,419.5 283.25,387.5 211.421,332 211.421,288.215 240,316.667 242.333,150 327.75,145.75 477.999,295.998 	
		"/>
	<g>
		<g>
			<path fill-rule="evenodd" clip-rule="evenodd" fill="#FFFFFF" d="M276.778,414.367c0-9.367,0.093-18.199-0.055-27.029
				c-0.054-3.285-2.27-5.58-5.483-6.061c-32.651-4.844-63.11-31.299-70.825-71.541c-0.758-3.945-1.302-7.945-1.641-11.943
				c-0.153-1.857,0.141-3.871,0.723-5.648c1.094-3.339,3.917-5.209,7.137-5.188c3.802,0.029,6.919,1.874,7.847,5.383
				c0.883,3.354,1.052,6.887,1.618,10.33c4.553,27.709,18.743,48.277,45.297,58.73c33.007,12.99,71.608-3.813,86.569-37.004
				c3.786-8.4,5.596-17.256,6.379-26.375c0.096-1.133,0.211-2.264,0.422-3.381c1.023-5.445,4.301-8.137,9.192-7.587
				c5.017,0.565,7.636,3.962,7.274,9.675c-0.924,14.615-4.745,28.441-11.993,41.193c-13.32,23.424-33.222,37.805-59.74,42.953
				c-5.436,1.055-6.712,2.754-6.647,8.201c0.086,7.703,0.067,15.406,0.105,23.111c0,0.594,0.086,1.195,0.163,2.193
				c1.174,0,2.276,0,3.38,0.006c9.189,0.059,18.382,0.059,27.567,0.236c1.877,0.033,3.802,0.57,5.596,1.184
				c2.951,1.01,4.271,3.326,4.713,6.363c0.432,3.006-0.972,5.059-3.363,6.223c-2.369,1.145-5.033,2.334-7.578,2.359
				c-25.908,0.236-51.82,0.236-77.731,0.301c-0.524,0.006-1.053-0.014-1.573-0.045c-5.925-0.359-8.806-3.031-8.848-8.186
				c-0.041-5.18,2.805-8.154,8.697-8.301c9.358-0.236,18.73-0.121,28.096-0.154C273.626,414.367,275.18,414.367,276.778,414.367z"/>
		</g>
		<path fill="#FFFFFF" d="M307.474,138.946h-44.949c-18.008,0-32.741,14.734-32.741,32.742v135.288
			c0,18.008,14.733,32.742,32.741,32.742h44.949c18.007,0,32.741-14.734,32.741-32.742V171.688
			C340.215,153.681,325.48,138.946,307.474,138.946z M302.706,322.219c0.038-0.275,0.166-0.521,0.166-0.809v-21.691
			c0-3.6-2.948-6.549-6.548-6.549c-3.601,0-6.549,2.949-6.549,6.549v21.691c0,0.313,0.138,0.586,0.18,0.885h-9.909
			c0.042-0.299,0.179-0.572,0.179-0.885v-21.691c0-3.6-2.947-6.549-6.548-6.549s-6.549,2.949-6.549,6.549v21.691
			c0,0.287,0.128,0.533,0.163,0.809c-13.32-0.402-24.114-12.301-24.114-26.865v-36.767h19.722c3.6,0,6.548-2.948,6.548-6.548
			c0-3.601-2.948-6.549-6.548-6.549h-19.722v-9.551h19.722c3.6,0,6.548-2.947,6.548-6.548s-2.948-6.549-6.548-6.549h-19.722v-10.231
			h19.722c3.6,0,6.548-2.948,6.548-6.548c0-3.601-2.948-6.549-6.548-6.549h-19.722v-15.488c0-14.816,11.159-26.94,24.799-26.94
			h34.046c13.641,0,24.799,12.124,24.799,26.94v14.584h-19.722c-3.6,0-6.548,2.948-6.548,6.548c0,3.601,2.948,6.549,6.548,6.549
			h19.722v10.231h-19.722c-3.6,0-6.548,2.948-6.548,6.548c0,3.601,2.948,6.549,6.548,6.549h19.722v10.455h-19.722
			c-3.6,0-6.548,2.948-6.548,6.549c0,3.6,2.948,6.548,6.548,6.548h19.722v36.767C326.82,309.916,316.026,321.813,302.706,322.219z"
			/>
	</g>
</g>
</svg>
